# xmcd
#
# Track frame offsets:
# 150
# 17763
# 30524
# 48732
# 62405
#
# Disc length: 1157 seconds
#
# Revision: 1
# Processed by: cddbd v1.5.2PL0 Copyright (c) Steve Scherf et al.
# Submitted via: CedeCatalogueitor 2.6.0.6 http://personales.ya.com/cdcatalogueitor
#
DISCID=37048305
DTITLE=El Hijo - La Piel Del Oso
DYEAR=1900
DGENRE=
TTITLE0=Esa Música Sombria
TTITLE1=Un Ayer
TTITLE2=Los Salvajes
TTITLE3=Gorilas En La Niebla
TTITLE4=El Señor De Las Bestias
EXTD=
EXTT0=
EXTT1=
EXTT2=
EXTT3=
EXTT4=
PLAYORDER=
